<svg width="7" height="12" viewBox="0 0 7 12" fill="none" xmlns="http://www.w3.org/2000/svg">
<path fill-rule="evenodd" clip-rule="evenodd" d="M0.999951 10.4476L6 5.72382L0.99995 1L0.99995 1.85889L5.09088 5.72382L0.999951 9.58875L0.999951 10.4476Z" fill="#A0522F"/>
<path d="M6 5.72382L6.17169 5.90555L6.36404 5.72382L6.17169 5.5421L6 5.72382ZM0.999951 10.4476L0.749951 10.4476L0.749951 11.0278L1.17164 10.6294L0.999951 10.4476ZM0.99995 1L1.17164 0.818275L0.74995 0.419885L0.74995 1L0.99995 1ZM0.99995 1.85889L0.74995 1.85889L0.74995 1.96663L0.828265 2.04062L0.99995 1.85889ZM5.09088 5.72382L5.26257 5.90555L5.45492 5.72382L5.26257 5.5421L5.09088 5.72382ZM0.999951 9.58875L0.828265 9.40703L0.749951 9.48101L0.749951 9.58875L0.999951 9.58875ZM5.82831 5.5421L0.828265 10.2659L1.17164 10.6294L6.17169 5.90555L5.82831 5.5421ZM0.828265 1.18173L5.82831 5.90555L6.17169 5.5421L1.17164 0.818275L0.828265 1.18173ZM1.24995 1.85889L1.24995 1L0.74995 1L0.74995 1.85889L1.24995 1.85889ZM0.828265 2.04062L4.9192 5.90555L5.26257 5.5421L1.17164 1.67717L0.828265 2.04062ZM4.9192 5.5421L0.828265 9.40703L1.17164 9.77048L5.26257 5.90555L4.9192 5.5421ZM1.24995 10.4476L1.24995 9.58875L0.749951 9.58875L0.749951 10.4476L1.24995 10.4476Z" fill="#A0522F"/>
</svg>
