<svg width="98" height="76" viewBox="0 0 98 76" fill="none" xmlns="http://www.w3.org/2000/svg">
<path d="M17.3008 28.7578C17.3008 29.6641 17.6367 30.5469 18.3086 31.4062C19.2148 32.5312 20.4258 33.1016 21.9414 33.1172V30.5156C21.0195 30.5156 20.3867 30.1094 20.043 29.2969C19.9492 29.0781 19.9023 28.8984 19.9023 28.7578V20.8594C19.9023 20.4375 20.0977 20.0312 20.4883 19.6406C20.8945 19.2812 21.3789 19.0938 21.9414 19.0781V16.4766C20.1758 16.4766 18.8477 17.2266 17.957 18.7266C17.5195 19.4609 17.3008 20.1719 17.3008 20.8594V28.7578ZM23.1367 33.1172C24.3711 33.1172 25.4414 32.6328 26.3477 31.6641C27.1289 30.8047 27.5195 29.8281 27.5195 28.7344L24.9883 28.125C24.9883 28.2969 24.9805 28.4062 24.9648 28.4531C24.9648 28.7812 24.9258 29.0625 24.8477 29.2969C24.7227 29.6094 24.5195 29.8672 24.2383 30.0703C23.957 30.2734 23.6992 30.3984 23.4648 30.4453L23.1367 30.5156V33.1172ZM23.1367 19.0781C23.1367 19.0781 23.3398 19.1406 23.7461 19.2656C24.2773 19.5312 24.6445 19.9141 24.8477 20.4141C24.9258 20.6484 24.9648 20.9141 24.9648 21.2109V21.5625L27.5195 20.9062C27.5195 19.7031 27.0195 18.6328 26.0195 17.6953C25.1289 16.8828 24.168 16.4766 23.1367 16.4766V19.0781ZM29.0195 28.4297V20.7188C29.0195 19.8906 29.3711 19.0469 30.0742 18.1875C31.0117 17.0625 32.1992 16.4922 33.6367 16.4766V19.0781C32.8242 19.0938 32.2148 19.5312 31.8086 20.3906C31.6836 20.6719 31.6211 20.9062 31.6211 21.0938V28.4297C31.6211 29.2734 32.0586 29.8984 32.9336 30.3047C33.1992 30.4297 33.4258 30.4922 33.6133 30.4922V33.1172C32.7227 33.1172 31.832 32.7969 30.9414 32.1562C29.6758 31.2188 29.0352 29.9766 29.0195 28.4297ZM34.9023 33.1172V30.4922C35.3086 30.4922 35.7305 30.3047 36.168 29.9297C36.6367 29.5078 36.8789 29.0078 36.8945 28.4297V21.0938C36.8945 20.625 36.6914 20.1719 36.2852 19.7344C35.8945 19.3125 35.4336 19.0938 34.9023 19.0781V16.4766C36.4805 16.4766 37.7461 17.1562 38.6992 18.5156C39.2461 19.2969 39.5195 20.0312 39.5195 20.7188V28.4297C39.5195 30.1641 38.7461 31.4922 37.1992 32.4141C36.3867 32.8828 35.6211 33.1172 34.9023 33.1172ZM41.3711 32.9766V16.5938H49.9023V19.1719H43.9961V23.5312H47.6992V26.1562H43.9961V32.9766H41.3711ZM51.5664 32.9766V16.5938H60.0977V19.1719H54.1914V23.5312H57.8945V26.1562H54.1914V32.9766H51.5664ZM61.7617 33V16.5938H70.293V19.1719H64.3867V23.5312H68.0898V26.1562H64.3867V30.3984H70.293V33H61.7617ZM72.168 33V16.5938H80.6992V19.1719H74.793V23.5312H78.4961V26.1562H74.793V30.3984H80.6992V33H72.168ZM17.2539 39.5938L22.0117 56H22.9023L23.8633 53.0703L19.9258 39.5938H17.2539ZM23.0664 46.2031L24.2617 50.2812H24.4961C25.0742 48.2812 25.6523 46.2656 26.2305 44.2344L29.5352 56H30.4258L31.3867 53.1172L27.5664 39.5938H24.918L23.0664 46.2031ZM30.7305 46.2266L31.9258 50.2812H32.1602L35.3477 39.5938H32.6758L30.7305 46.2266ZM36.4961 51.4297V43.7188C36.4961 42.8906 36.8477 42.0469 37.5508 41.1875C38.4883 40.0625 39.6758 39.4922 41.1133 39.4766V42.0781C40.3008 42.0938 39.6914 42.5312 39.2852 43.3906C39.1602 43.6719 39.0977 43.9062 39.0977 44.0938V51.4297C39.0977 52.2734 39.5352 52.8984 40.4102 53.3047C40.6758 53.4297 40.9023 53.4922 41.0898 53.4922V56.1172C40.1992 56.1172 39.3086 55.7969 38.418 55.1562C37.1523 54.2188 36.5117 52.9766 36.4961 51.4297ZM42.3789 56.1172V53.4922C42.7852 53.4922 43.207 53.3047 43.6445 52.9297C44.1133 52.5078 44.3555 52.0078 44.3711 51.4297V44.0938C44.3711 43.625 44.168 43.1719 43.7617 42.7344C43.3711 42.3125 42.9102 42.0938 42.3789 42.0781V39.4766C43.957 39.4766 45.2227 40.1562 46.1758 41.5156C46.7227 42.2969 46.9961 43.0312 46.9961 43.7188V51.4297C46.9961 53.1641 46.2227 54.4922 44.6758 55.4141C43.8633 55.8828 43.0977 56.1172 42.3789 56.1172ZM48.8711 56V39.5938H51.4961V56H48.8711ZM52.6914 49.0859V46.7422H54.0039C55.3633 46.7422 56.1133 46.0938 56.2539 44.7969C56.2695 44.6562 56.2773 44.5234 56.2773 44.3984C56.2773 43.0859 55.6836 42.3125 54.4961 42.0781C54.2773 42.0469 54.0508 42.0312 53.8164 42.0312H52.6914V39.5938H54.1211C56.1992 39.6406 57.5977 40.4141 58.3164 41.9141C58.6133 42.5391 58.7617 43.2578 58.7617 44.0703C58.7461 45.8047 58.2148 47.0625 57.168 47.8438C57.9805 48.3125 58.4961 49.1484 58.7148 50.3516C58.7461 50.5547 58.7695 50.7422 58.7852 50.9141L59.1836 56H56.7461L56.3945 51.8281C56.2695 50.5156 55.918 49.6875 55.3398 49.3438C54.9961 49.1719 54.5664 49.0859 54.0508 49.0859H52.6914ZM60.707 56V39.5938H63.332V53.4219H69.5195V56H60.707ZM70.8789 56V39.5938H73.5039V56H70.8789ZM74.7227 56V53.3984C76.5195 53.3984 77.4336 52.7422 77.4648 51.4297C77.4648 51.4141 77.4648 51.3984 77.4648 51.3828V44.2109C77.4648 43.2734 76.9414 42.6562 75.8945 42.3594C75.5352 42.25 75.1445 42.1953 74.7227 42.1953V39.5938C76.7227 39.5938 78.2148 40.25 79.1992 41.5625C79.7773 42.3438 80.0664 43.2266 80.0664 44.2109V51.3828C80.0664 53.5547 79.043 54.9766 76.9961 55.6484C76.293 55.8828 75.5352 56 74.7227 56Z" fill="black"/>
<path d="M47.8177 1H1V37.0049M47.8177 75H97V37.0049" stroke="black" stroke-width="2"/>
</svg>
