<svg width="70" height="46" viewBox="0 0 70 46" fill="none" xmlns="http://www.w3.org/2000/svg">
<path d="M69.9525 8.096C66.4965 11.936 63.6165 16.544 61.3125 21.92C59.2005 27.104 58.1445 32.288 58.1445 37.472C58.1445 40.352 58.3365 42.464 58.7205 43.808L37.1205 45.824C36.5445 42.944 36.2565 40.16 36.2565 37.472C36.2565 29.984 38.0805 23.072 41.7285 16.736C45.5685 10.4 50.3685 5.11999 56.1285 0.895988L69.9525 8.096ZM33.9525 8.096C30.4965 11.936 27.6165 16.544 25.3125 21.92C23.2005 27.104 22.1445 32.288 22.1445 37.472C22.1445 40.352 22.3365 42.464 22.7205 43.808L1.1205 45.824C0.544501 42.944 0.256501 40.16 0.256501 37.472C0.256501 29.984 2.0805 23.072 5.7285 16.736C9.5685 10.4 14.3685 5.11999 20.1285 0.895988L33.9525 8.096Z" fill="#B78A64"/>
</svg>
