<svg width="12" height="7" viewBox="0 0 12 7" fill="none" xmlns="http://www.w3.org/2000/svg">
<path fill-rule="evenodd" clip-rule="evenodd" d="M0.999989 0.99995L5.72381 6L10.4476 0.99995L9.58874 0.99995L5.72381 5.09088L1.85888 0.99995L0.999989 0.99995Z" fill="#767676"/>
<path d="M5.72381 6L5.54209 6.17169L5.72381 6.36404L5.90554 6.17169L5.72381 6ZM0.999989 0.99995L0.999989 0.74995L0.419875 0.74995L0.818263 1.17164L0.999989 0.99995ZM10.4476 0.99995L10.6294 1.17164L11.0277 0.74995L10.4476 0.74995L10.4476 0.99995ZM9.58874 0.99995L9.58874 0.74995L9.481 0.74995L9.40702 0.828265L9.58874 0.99995ZM5.72381 5.09088L5.54209 5.26257L5.72381 5.45492L5.90554 5.26257L5.72381 5.09088ZM1.85888 0.99995L2.04061 0.828264L1.96662 0.74995L1.85888 0.74995L1.85888 0.99995ZM5.90554 5.82831L1.18171 0.828264L0.818263 1.17164L5.54209 6.17169L5.90554 5.82831ZM10.2659 0.828265L5.54209 5.82831L5.90554 6.17169L10.6294 1.17164L10.2659 0.828265ZM9.58874 1.24995L10.4476 1.24995L10.4476 0.74995L9.58874 0.74995L9.58874 1.24995ZM9.40702 0.828265L5.54209 4.9192L5.90554 5.26257L9.77047 1.17164L9.40702 0.828265ZM5.90554 4.9192L2.04061 0.828264L1.67716 1.17164L5.54209 5.26257L5.90554 4.9192ZM0.999989 1.24995L1.85888 1.24995L1.85888 0.74995L0.999989 0.74995L0.999989 1.24995Z" fill="#767676"/>
</svg>
