<svg width="15" height="8" viewBox="0 0 15 8" fill="none" xmlns="http://www.w3.org/2000/svg">
<path fill-rule="evenodd" clip-rule="evenodd" d="M2 0.999996L7.47516 6.79532L12.9503 0.999997L11.9548 0.999997L7.47516 5.74164L2.99547 0.999996L2 0.999996Z" fill="#A0522F"/>
<path d="M7.47516 6.79532L7.11171 7.13869L7.47516 7.52339L7.83861 7.13869L7.47516 6.79532ZM2 0.999996L2 0.499996L0.839771 0.499996L1.63655 1.34337L2 0.999996ZM12.9503 0.999997L13.3138 1.34337L14.1105 0.499997L12.9503 0.499997L12.9503 0.999997ZM11.9548 0.999997L11.9548 0.499997L11.7394 0.499997L11.5914 0.656626L11.9548 0.999997ZM7.47516 5.74164L7.11171 6.08501L7.47516 6.46971L7.83861 6.08501L7.47516 5.74164ZM2.99547 0.999996L3.35892 0.656625L3.21095 0.499996L2.99547 0.499996L2.99547 0.999996ZM7.83861 6.45195L2.36345 0.656625L1.63655 1.34337L7.11171 7.13869L7.83861 6.45195ZM12.5869 0.656626L7.11171 6.45195L7.83861 7.13869L13.3138 1.34337L12.5869 0.656626ZM11.9548 1.5L12.9503 1.5L12.9503 0.499997L11.9548 0.499997L11.9548 1.5ZM11.5914 0.656626L7.11171 5.39827L7.83861 6.08501L12.3183 1.34337L11.5914 0.656626ZM7.83861 5.39827L3.35892 0.656625L2.63202 1.34337L7.11171 6.08501L7.83861 5.39827ZM2 1.5L2.99547 1.5L2.99547 0.499996L2 0.499996L2 1.5Z" fill="#A0522F"/>
</svg>
