<svg width="22" height="44" viewBox="0 0 22 44" fill="none" xmlns="http://www.w3.org/2000/svg">
<path fill-rule="evenodd" clip-rule="evenodd" d="M0.999951 42L21 22L0.99995 2L0.99995 5.63622L17.3638 22L0.999951 38.3638L0.999951 42Z" fill="#A0522F"/>
<path d="M21 22L21.3536 22.3536L21.7071 22L21.3536 21.6464L21 22ZM0.999951 42L0.499951 42L0.499951 43.2071L1.3535 42.3536L0.999951 42ZM0.99995 2L1.3535 1.64645L0.49995 0.792896L0.49995 2L0.99995 2ZM0.99995 5.63622L0.49995 5.63622L0.49995 5.84333L0.646397 5.98978L0.99995 5.63622ZM17.3638 22L17.7173 22.3536L18.0709 22L17.7173 21.6464L17.3638 22ZM0.999951 38.3638L0.646398 38.0102L0.499951 38.1567L0.499951 38.3638L0.999951 38.3638ZM20.6464 21.6464L0.646398 41.6464L1.3535 42.3536L21.3536 22.3536L20.6464 21.6464ZM0.646397 2.35355L20.6464 22.3536L21.3536 21.6464L1.3535 1.64645L0.646397 2.35355ZM1.49995 5.63622L1.49995 2L0.49995 2L0.49995 5.63622L1.49995 5.63622ZM0.646397 5.98978L17.0102 22.3536L17.7173 21.6464L1.3535 5.28267L0.646397 5.98978ZM17.0102 21.6464L0.646398 38.0102L1.3535 38.7173L17.7173 22.3536L17.0102 21.6464ZM1.49995 42L1.49995 38.3638L0.499951 38.3638L0.499951 42L1.49995 42Z" fill="#A0522F"/>
</svg>
