<svg width="22" height="44" viewBox="0 0 22 44" fill="none" xmlns="http://www.w3.org/2000/svg">
<path fill-rule="evenodd" clip-rule="evenodd" d="M21 42L1 22L21 2L21 5.63622L4.63623 22L21 38.3638L21 42Z" fill="#A0522F"/>
<path d="M1 22L0.646447 22.3536L0.292892 22L0.646447 21.6464L1 22ZM21 42L21.5 42L21.5 43.2071L20.6465 42.3536L21 42ZM21 2L20.6465 1.64645L21.5 0.792896L21.5 2L21 2ZM21 5.63622L21.5 5.63622L21.5 5.84333L21.3536 5.98978L21 5.63622ZM4.63623 22L4.28268 22.3536L3.92912 22L4.28268 21.6464L4.63623 22ZM21 38.3638L21.3536 38.0102L21.5 38.1567L21.5 38.3638L21 38.3638ZM1.35355 21.6464L21.3536 41.6464L20.6465 42.3536L0.646447 22.3536L1.35355 21.6464ZM21.3536 2.35355L1.35355 22.3536L0.646447 21.6464L20.6465 1.64645L21.3536 2.35355ZM20.5 5.63622L20.5 2L21.5 2L21.5 5.63622L20.5 5.63622ZM21.3536 5.98978L4.98978 22.3536L4.28268 21.6464L20.6465 5.28267L21.3536 5.98978ZM4.98978 21.6464L21.3536 38.0102L20.6465 38.7173L4.28268 22.3536L4.98978 21.6464ZM20.5 42L20.5 38.3638L21.5 38.3638L21.5 42L20.5 42Z" fill="#A0522F"/>
</svg>
