<svg id="line" enable-background="new 0 0 512 512" height="512" viewBox="0 0 512 512" width="512" xmlns="http://www.w3.org/2000/svg" fill="#522A0A"><path d="m269.128 62.144c12.592-10.496 26.872-22.4 26.872-46.144h-16c0 16.256-9.792 24.408-21.128 33.856-12.592 10.496-26.872 22.4-26.872 46.144h16c0-16.256 9.792-24.408 21.128-33.856z"/><path d="m357.656 53.656c12.352-12.344 26.344-26.344 26.344-53.656h-16c0 20.688-10.04 30.72-21.656 42.344-12.352 12.344-26.344 26.344-26.344 53.656h16c0-20.688 10.04-30.72 21.656-42.344z"/><path d="m181.656 53.656c12.352-12.344 26.344-26.344 26.344-53.656h-16c0 20.688-10.04 30.72-21.656 42.344-12.352 12.344-26.344 26.344-26.344 53.656h16c0-20.688 10.04-30.72 21.656-42.344z"/><path d="m448 192h-48v-16c0-8.824-7.176-16-16-16h-.688c-3.28-18.84-17.952-34.136-37.288-37.76l-8.088-1.512c-59.688-11.184-120.184-11.184-179.872 0l-8.088 1.512c-19.336 3.624-34.008 18.92-37.288 37.76h-.688c-8.824 0-16 7.176-16 16v47.112c0 38.224 3.416 76.68 10.16 114.296l15.752-2.824c-6.576-36.68-9.912-74.184-9.912-111.472v-47.112h128v56c0 13.232 10.768 24 24 24s24-10.768 24-24v-8c0-4.408 3.584-8 8-8s8 3.592 8 8v40c0 13.232 10.768 24 24 24s24-10.768 24-24v-24h-16v24c0 4.408-3.584 8-8 8s-8-3.592-8-8v-40c0-13.232-10.768-24-24-24s-24 10.768-24 24v8c0 4.408-3.584 8-8 8s-8-3.592-8-8v-56h80v48h16v-48h32v47.112c0 45.384-4.688 91.168-16.16 157.88l-12.48 35.112c-.96 2.72-2.08 5.352-3.344 7.896h-.016v.032c-12.04 24.216-36.976 39.968-64.48 39.968h-52.136c17.064-10.088 28.616-29.296 28.616-51.296 0-22.968-13.008-43.84-32.792-53.336-.8-3.016-1.944-5.928-3.448-8.688-.712-1.288-1.536-2.472-2.512-3.832-.032-.048-.064-.088-.104-.128-18-24.888-63.208-24.28-105.312 1.456-42.12 25.736-65.032 66.704-53.32 95.288l.096.216c.04.128.088.248.136.368.44 1.104.896 2.192 1.48 3.264 3.936 7.224 10.056 12.88 17.936 16.688h-54.16c-2.464 0-4.792 1.136-6.304 3.08s-2.056 4.472-1.456 6.864l4.968 19.88c2.672 10.696 12.256 18.176 23.288 18.176h391.016c11.032 0 20.608-7.48 23.28-18.176l4.968-19.88c.6-2.392.064-4.92-1.456-6.864s-3.84-3.08-6.304-3.08h-125.952c9.12-6.4 17.04-14.528 23.216-24h39.672c17.24 0 32.496-10.992 37.944-27.344l48.704-146.12c.272-.824.416-1.68.416-2.536v-32c0-22.056-17.944-40-40-40zm-318.936-32c3.008-11.08 12.136-19.832 23.864-22.032l8.088-1.512c57.72-10.824 116.248-10.824 173.968 0l8.088 1.512c11.736 2.2 20.856 10.952 23.864 22.032zm102.928 218.648c9.88 7.944 16.008 20.48 16.008 34.056 0 23.616-17.944 42.824-40 42.824-9.312 0-18.184-3.528-25.304-9.896 27.776-18.904 45.768-44.224 49.296-66.984zm-15.816-13.248c.016.272.032.544.072.824.776 5.208.16 10.896-1.672 16.792-3.088 9.728-9.496 20.168-18.464 30-.08.088-.16.176-.24.264-.168.184-.336.36-.504.544-7.712 8.248-17.248 16.048-28.12 22.688l-.952.536c-.24.144-.472.296-.696.464-23.272 13.624-48.424 19.128-66.152 14.392-3.366-.898-6.304-2.132-8.854-3.681 14.176-1.488 27.462-6.262 38.31-13.376 9.6-6.297 15.667-11.976 19.096-16.124 5.03-6.082 8.847-13.113 11.456-17.766 2.668-4.76 5.189-9.256 10.454-15.414 2.126-2.488 6.552-7.665 13.201-12.767 4.134-3.172 13.341-9.208 31.322-12.977.807 1.769 1.375 3.641 1.743 5.601zm-47.6 88.8c3.664 3.88 7.768 7.168 12.184 9.8h-34.92c7.56-2.48 15.2-5.76 22.736-9.8zm-40.408-92.384c18.704-11.432 38.6-17.312 54.784-17.312 5.729 0 10.99.736 15.568 2.227-13.711 5.065-23.776 11.786-27.52 14.659-7.979 6.123-11.193 10.279-13.48 12.955-6.288 7.355-9.227 13.805-12.02 18.787-2.469 4.404-4.602 8.207-8.712 13.178-2.854 3.453-8.815 10.013-16.659 15.158-13.8 9.05-29.239 10.795-40.3 10.555-3.427-20.822 16.847-50.95 48.339-70.207zm325.592 118.184-2.488 9.936c-.896 3.568-4.088 6.064-7.768 6.064h-391.008c-3.68 0-6.864-2.496-7.768-6.064l-2.488-9.936zm-54.224-232h32.464v14.776l-37.88 121.224h-10.56c9.6-55.776 14.528-97.216 15.976-136zm72.464 14.704-48.288 144.888c-3.28 9.816-12.432 16.408-22.776 16.408h-31.44c.328-.84.648-1.688.952-2.536l7.624-21.464h21.928c3.496 0 6.592-2.272 7.632-5.616l40-128c.24-.768.368-1.576.368-2.384v-24c0-4.416-3.576-8-8-8h-40v-24h48c13.232 0 24 10.768 24 24z"/></svg>