<svg id="line" enable-background="new 0 0 64 64" height="512" viewBox="0 0 64 64" width="512" xmlns="http://www.w3.org/2000/svg" fill="#522A0A"><path d="m18 36h2v2h-2z"/><path d="m25 37h2v2h-2z"/><path d="m33 36h2v2h-2z"/><path d="m63 56h-5v2h4v1c0 .551-.448 1-1 1h-58c-.552 0-1-.449-1-1v-1h54v-2h-10.382l1-2h.382c.94 0 1.837-.449 2.399-1.2l2.4-3.2c.13-.173.2-.384.2-.6v-2c0-.552-.447-1-1-1h-1.033c-.515-7.807-7.031-14-14.966-14h-7v-3h3c1.654 0 3-1.346 3-3v-2c0-.552-.447-1-1-1h-6c-.553 0-1 .448-1 1v8h-7c-3.374 0-6.491 1.12-9 3.007v-1.007c0-14.336 11.663-26 26-26 14.001 0 25.453 11.125 25.981 25h-14.981v2h16c.553 0 1-.448 1-1 0-14.135-10.528-25.856-24.154-27.736l-.391-1.567c-.396-1.588-1.817-2.697-3.456-2.697-1.638 0-3.058 1.109-3.453 2.696l-.392 1.567c-13.626 1.881-24.154 13.602-24.154 27.737v2.812c-2.269 2.448-3.733 5.653-3.967 9.188h-1.033c-.553 0-1 .448-1 1v2c0 .216.07.427.2.6l2.4 3.2c.563.751 1.46 1.2 2.4 1.2h.382l1 2h-7.382c-.553 0-1 .448-1 1v2c0 1.654 1.346 3 3 3h58c1.654 0 3-1.346 3-3v-2c0-.552-.447-1-1-1zm-31-31v1c0 .551-.448 1-1 1h-3v-2zm2.281-19 .205-.819c.173-.695.796-1.181 1.515-1.181.718 0 1.34.486 1.514 1.182l.204.818zm-15.281 28h16c6.832 0 12.449 5.297 12.962 12h-2.962v-3c0-1.654-1.346-3-3-3h-12c-1.654 0-3 1.346-3 3v3h-3.612l.73-2.187c.297-.895.152-1.846-.399-2.61-.552-.765-1.409-1.203-2.352-1.203-.763 0-1.472.298-1.999.8-.534-.514-1.24-.8-2.001-.8-.763 0-1.472.298-1.999.8-.534-.514-1.24-.8-2.001-.8-1.248 0-2.353.796-2.748 1.981l-1.339 4.019h-3.242c.513-6.703 6.13-12 12.962-12zm14 10v-2h2v2h2v-2h2v2h2v-2h1c.552 0 1 .449 1 1v3h-14v-3c0-.551.448-1 1-1h1v2zm-18.775-.837-.635 1.904-.311.933h-1.892l1.128-3.386c.217-.645 1.184-.793 1.58-.241.168.232.214.519.13.79zm1.258 2.55.634-1.9c.007-.021.013-.041.02-.062l.379-1.137c.216-.645 1.183-.793 1.58-.241.167.232.213.519.13.79l-.635 1.904-.312.933h-1.892zm4 0 .634-1.9c.007-.021.013-.041.02-.062l.379-1.137c.216-.645 1.183-.793 1.58-.241.171.237.216.532.124.808l-.941 2.819h-1.892zm-13.283 5.887-2.2-2.933v-.667h46v.667l-2.201 2.934c-.187.25-.486.399-.799.399h-40c-.313 0-.612-.149-.8-.4zm4.142 3.847-.724-1.447h34.764l-.724 1.447c-.171.341-.513.553-.894.553h-31.528c-.381 0-.723-.212-.894-.553z"/><path d="m51.54 20.93 1.621-1.171c-3.509-4.858-9.176-7.759-15.161-7.759v2c5.345 0 10.406 2.591 13.54 6.93z"/><path d="m34 12h2v2h-2z"/></svg>